<svg width="1200" height="414" viewBox="0 0 1200 414" fill="none" xmlns="http://www.w3.org/2000/svg">
<rect width="1200" height="414" fill="white"/>
<path d="M259.237 291H197.378V108.455H260.485C278.608 108.455 294.177 112.109 307.191 119.418C320.263 126.667 330.306 137.096 337.318 150.704C344.329 164.312 347.835 180.593 347.835 199.549C347.835 218.564 344.3 234.905 337.228 248.572C330.217 262.24 320.085 272.728 306.834 280.037C293.642 287.346 277.776 291 259.237 291ZM230.447 262.388H257.632C270.349 262.388 280.956 260.071 289.453 255.436C297.95 250.741 304.338 243.759 308.617 234.489C312.895 225.16 315.034 213.513 315.034 199.549C315.034 185.585 312.895 173.997 308.617 164.787C304.338 155.517 298.01 148.594 289.631 144.019C281.312 139.384 270.973 137.066 258.613 137.066H230.447V262.388Z" fill="#222222"/>
<path d="M389.295 279.456C384.871 279.456 380.886 278.668 377.341 277.092C373.826 275.486 371.038 273.123 368.977 270.002C366.947 266.88 365.932 263.032 365.932 258.456C365.932 254.517 366.659 251.259 368.114 248.683C369.568 246.108 371.553 244.047 374.068 242.502C376.583 240.956 379.417 239.789 382.568 239.002C385.75 238.183 389.038 237.592 392.432 237.229C396.523 236.805 399.841 236.426 402.386 236.092C404.932 235.729 406.78 235.183 407.932 234.456C409.114 233.699 409.705 232.532 409.705 230.956V230.683C409.705 227.259 408.689 224.608 406.659 222.729C404.629 220.85 401.705 219.911 397.886 219.911C393.856 219.911 390.659 220.789 388.295 222.547C385.962 224.305 384.386 226.38 383.568 228.774L368.205 226.592C369.417 222.35 371.417 218.805 374.205 215.956C376.992 213.077 380.402 210.926 384.432 209.502C388.462 208.047 392.917 207.32 397.795 207.32C401.159 207.32 404.508 207.714 407.841 208.502C411.174 209.289 414.22 210.592 416.977 212.411C419.735 214.199 421.947 216.638 423.614 219.729C425.311 222.82 426.159 226.683 426.159 231.32V278.047H410.341V268.456H409.795C408.795 270.395 407.386 272.214 405.568 273.911C403.78 275.577 401.523 276.926 398.795 277.956C396.098 278.956 392.932 279.456 389.295 279.456ZM393.568 267.365C396.871 267.365 399.735 266.714 402.159 265.411C404.583 264.077 406.447 262.32 407.75 260.138C409.083 257.956 409.75 255.577 409.75 253.002V244.774C409.235 245.199 408.356 245.592 407.114 245.956C405.902 246.32 404.538 246.638 403.023 246.911C401.508 247.183 400.008 247.426 398.523 247.638C397.038 247.85 395.75 248.032 394.659 248.183C392.205 248.517 390.008 249.062 388.068 249.82C386.129 250.577 384.598 251.638 383.477 253.002C382.356 254.335 381.795 256.062 381.795 258.183C381.795 261.214 382.902 263.502 385.114 265.047C387.326 266.592 390.144 267.365 393.568 267.365Z" fill="#222222"/>
<path d="M473.795 279.456C469.371 279.456 465.386 278.668 461.841 277.092C458.326 275.486 455.538 273.123 453.477 270.002C451.447 266.88 450.432 263.032 450.432 258.456C450.432 254.517 451.159 251.259 452.614 248.683C454.068 246.108 456.053 244.047 458.568 242.502C461.083 240.956 463.917 239.789 467.068 239.002C470.25 238.183 473.538 237.592 476.932 237.229C481.023 236.805 484.341 236.426 486.886 236.092C489.432 235.729 491.28 235.183 492.432 234.456C493.614 233.699 494.205 232.532 494.205 230.956V230.683C494.205 227.259 493.189 224.608 491.159 222.729C489.129 220.85 486.205 219.911 482.386 219.911C478.356 219.911 475.159 220.789 472.795 222.547C470.462 224.305 468.886 226.38 468.068 228.774L452.705 226.592C453.917 222.35 455.917 218.805 458.705 215.956C461.492 213.077 464.902 210.926 468.932 209.502C472.962 208.047 477.417 207.32 482.295 207.32C485.659 207.32 489.008 207.714 492.341 208.502C495.674 209.289 498.72 210.592 501.477 212.411C504.235 214.199 506.447 216.638 508.114 219.729C509.811 222.82 510.659 226.683 510.659 231.32V278.047H494.841V268.456H494.295C493.295 270.395 491.886 272.214 490.068 273.911C488.28 275.577 486.023 276.926 483.295 277.956C480.598 278.956 477.432 279.456 473.795 279.456ZM478.068 267.365C481.371 267.365 484.235 266.714 486.659 265.411C489.083 264.077 490.947 262.32 492.25 260.138C493.583 257.956 494.25 255.577 494.25 253.002V244.774C493.735 245.199 492.856 245.592 491.614 245.956C490.402 246.32 489.038 246.638 487.523 246.911C486.008 247.183 484.508 247.426 483.023 247.638C481.538 247.85 480.25 248.032 479.159 248.183C476.705 248.517 474.508 249.062 472.568 249.82C470.629 250.577 469.098 251.638 467.977 253.002C466.856 254.335 466.295 256.062 466.295 258.183C466.295 261.214 467.402 263.502 469.614 265.047C471.826 266.592 474.644 267.365 478.068 267.365Z" fill="#222222"/>
<path d="M577.506 208.229V220.956H537.369V208.229H577.506ZM547.278 191.502H563.733V257.047C563.733 259.259 564.066 260.956 564.733 262.138C565.43 263.289 566.339 264.077 567.46 264.502C568.581 264.926 569.824 265.138 571.188 265.138C572.218 265.138 573.157 265.062 574.006 264.911C574.884 264.759 575.551 264.623 576.006 264.502L578.778 277.365C577.9 277.668 576.642 278.002 575.006 278.365C573.4 278.729 571.43 278.941 569.097 279.002C564.975 279.123 561.263 278.502 557.96 277.138C554.657 275.744 552.036 273.592 550.097 270.683C548.188 267.774 547.248 264.138 547.278 259.774V191.502Z" fill="#222222"/>
<path d="M641.426 279.411C634.426 279.411 628.381 277.956 623.29 275.047C618.229 272.108 614.335 267.956 611.608 262.592C608.881 257.199 607.517 250.85 607.517 243.547C607.517 236.365 608.881 230.062 611.608 224.638C614.366 219.183 618.214 214.941 623.153 211.911C628.093 208.85 633.896 207.32 640.562 207.32C644.866 207.32 648.926 208.017 652.744 209.411C656.593 210.774 659.987 212.895 662.926 215.774C665.896 218.653 668.229 222.32 669.926 226.774C671.623 231.199 672.472 236.471 672.472 242.592V247.638H615.244V236.547H656.699C656.669 233.395 655.987 230.592 654.653 228.138C653.32 225.653 651.456 223.699 649.062 222.274C646.699 220.85 643.941 220.138 640.79 220.138C637.426 220.138 634.472 220.956 631.926 222.592C629.381 224.199 627.396 226.32 625.972 228.956C624.578 231.562 623.866 234.426 623.835 237.547V247.229C623.835 251.289 624.578 254.774 626.062 257.683C627.547 260.562 629.623 262.774 632.29 264.32C634.956 265.835 638.078 266.592 641.653 266.592C644.047 266.592 646.214 266.259 648.153 265.592C650.093 264.895 651.775 263.88 653.199 262.547C654.623 261.214 655.699 259.562 656.426 257.592L671.79 259.32C670.82 263.38 668.972 266.926 666.244 269.956C663.547 272.956 660.093 275.289 655.881 276.956C651.669 278.592 646.85 279.411 641.426 279.411Z" fill="#222222"/>
<path d="M729.722 184.956V278.047H713.267V184.956H729.722Z" fill="#222222"/>
<path d="M793.222 184.956V278.047H776.767V184.956H793.222Z" fill="#222222"/>
<path d="M838.767 278.047V208.229H855.222V278.047H838.767ZM847.04 198.32C844.434 198.32 842.191 197.456 840.312 195.729C838.434 193.971 837.494 191.865 837.494 189.411C837.494 186.926 838.434 184.82 840.312 183.092C842.191 181.335 844.434 180.456 847.04 180.456C849.676 180.456 851.919 181.335 853.767 183.092C855.646 184.82 856.585 186.926 856.585 189.411C856.585 191.865 855.646 193.971 853.767 195.729C851.919 197.456 849.676 198.32 847.04 198.32Z" fill="#222222"/>
<rect x="867" y="180.366" width="48" height="9" transform="rotate(-29.1298 867 180.366)" fill="#222222"/>
<rect x="872" y="190" width="48" height="9" fill="#222222"/>
<rect x="871.395" y="201" width="48" height="9" transform="rotate(29.2307 871.395 201)" fill="#222222"/>
</svg>
